Plot: An agoraphobic father teams up with a renegade priest to save his daughter from the clutches of a gang of twisted feral children who committed an act of violence against his family years earlier. 

MediaInfo 0.7.61:
General
Complete name                            : D:Citadel.2012.L1.BDRip.700MB.(R).avi
Format                                   : AVI
Format/Info                              : Audio Video Interleave
File size                                : 697 MiB
Duration                                 : 1h 24mn
Overall bit rate                         : 1 155 Kbps
Writing application                      : VirtualDubMod 1.5.10.2 (build 2540/release)
Writing library                          : VirtualDubMod build 2540/release

Video
ID                                       : 0
Format                                   : MPEG-4 Visual
Format profile                           : Advanced Simple@L5
Format settings, BVOP                    : No
Format settings, QPel                    : No
Format settings, GMC                     : No warppoints
Format settings, Matrix                  : Default (H.263)
Codec ID                                 : XVID
Codec ID/Hint                            : XviD
Duration                                 : 1h 24mn
Bit rate                                 : 1 017 Kbps
Width                                    : 640 pixels
Height                                   : 352 pixels
Display aspect ratio                     : 16:9
Frame rate                               : 23.976 fps
Color space                              : YUV
Chroma subsampling                       : 4:2:0
Bit depth                                : 8 bits
Scan type                                : Progressive
Compression mode                         : Lossy
Bits/(Pixel*Frame)                       : 0.188
Stream size                              : 614 MiB (88%)
Writing library                          : XviD 1.2.1 (UTC 2008-12-04)

Audio
ID                                       : 1
Format                                   : MPEG Audio
Format version                           : Version 1
Format profile                           : Layer 3
Mode                                     : Joint stereo
Mode extension                           : MS Stereo
Codec ID                                 : 55
Codec ID/Hint                            : MP3
Duration                                 : 1h 24mn
Bit rate mode                            : Constant
Bit rate                                 : 128 Kbps
Channel(s)                               : 2 channels
Sampling rate                            : 48.0 KHz
Compression mode                         : Lossy
Stream size                              : 77.3 MiB (11%)
Alignment                                : Aligned on interleaves
Interleave, duration                     : 42 ms (1.00 video frame)
Interleave, preload duration             : 504 ms

Screenshots: 
http://img546.imageshack.us/img546/4197/grab40b.png 
http://img341.imageshack.us/img341/1454/grab41d.png 
http://img543.imageshack.us/img543/683/grab42y.png 
http://img266.imageshack.us/img266/9130/grab43m.png 
http://img703.imageshack.us/img703/7035/grab44wu.png 
http://img811.imageshack.us/img811/5263/grab45w.png 
http://img541.imageshack.us/img541/9799/grab46.png 
http://img502.imageshack.us/img502/6889/grab47.png 
http://img13.imageshack.us/img13/5062/grab48a.png 
http://img717.imageshack.us/img717/7807/grab49w.png 
http://img96.imageshack.us/img96/729/grab50e.png 
http://img515.imageshack.us/img515/8913/grab51.png